<svg width="18" height="24" viewBox="0 0 18 24" fill="none" xmlns="http://www.w3.org/2000/svg">
<path d="M8.99692 0C10.3931 0 11.7279 0.563969 12.7154 1.57354C13.7029 2.58312 14.2546 3.94778 14.2546 5.37511C14.2546 6.80244 13.7029 8.1671 12.7154 9.17668C11.7279 10.1862 10.3931 10.7502 8.99692 10.7502C7.60078 10.7502 6.26593 10.1862 5.27842 9.17668C4.2909 8.17406 3.73926 6.8094 3.73926 5.38207C3.73926 3.95474 4.2909 2.59008 5.27842 1.5805C6.26593 0.563969 7.60078 0 8.99692 0Z" fill="#320D6E"/>
<path d="M8.9966 12.4978C3.12599 12.4978 0 15.7772 0 18.2489V23.1227C0 23.6101 0.381385 24 0.858116 24H17.1419C17.6186 24 18 23.6101 18 23.1227V18.2489C18 15.7772 14.8672 12.4978 8.9966 12.4978Z" fill="#320D6E"/>
</svg>
