<svg width="26" height="24" viewBox="0 0 26 24" fill="none" xmlns="http://www.w3.org/2000/svg">
<g clip-path="url(#clip0_711_342)">
<path d="M0.658278 10.8275L5.54666 14.381C6.10585 14.7869 6.34035 15.5039 6.12389 16.1623L4.25692 21.9075C3.77891 23.3732 5.46098 24.5952 6.71013 23.6888L11.5985 20.1398C12.1577 19.7339 12.9108 19.7339 13.47 20.1398L18.3584 23.6888C19.6075 24.5952 21.2896 23.3732 20.8116 21.9075L18.9401 16.1578C18.7282 15.4994 18.9582 14.7824 19.5173 14.3765L24.4012 10.8275C25.6504 9.92107 25.01 7.94588 23.4632 7.94588H17.4249C16.7349 7.94588 16.1216 7.49943 15.9097 6.84554L14.0472 1.10033C13.5692 -0.369789 11.4948 -0.369789 11.0168 1.10033L9.14982 6.84554C8.93787 7.50394 8.32456 7.94588 7.6346 7.94588H1.59627C0.0539939 7.94588 -0.586367 9.92107 0.658278 10.8275Z" fill="#320D6E"/>
</g>
<defs>
<clipPath id="clip0_711_342">
<rect width="25.0688" height="24" fill="white"/>
</clipPath>
</defs>
</svg>
