<svg width="105" height="100" viewBox="0 0 105 100" fill="none" xmlns="http://www.w3.org/2000/svg">
<path d="M96.0179 10.5851C94.3113 9.89435 92.4827 9.56928 90.6745 9.56928H85.2093V3.86022C85.2093 1.70662 83.5026 0 81.349 0H23.4458C21.2922 0 19.5855 1.70662 19.5855 3.86022V9.54896H14.1C6.37952 9.44738 0 15.705 0 23.4458C0 25.2743 0.345388 27.0825 1.01585 28.911L1.93011 31.0646C4.99797 38.46 11.8245 43.8033 19.7887 44.8395C21.6172 59.6302 33.5636 71.3531 48.4559 72.5924V92.2796H36.1642C34.0106 92.2796 32.3039 93.9862 32.3039 96.1398C32.3039 98.2934 34.0106 100 36.1642 100H68.59C70.7436 100 72.4502 98.2934 72.4502 96.1398C72.4502 93.9862 70.7436 92.2796 68.59 92.2796H56.1967V72.5924C71.1093 71.3328 83.0557 59.6302 84.8639 44.8395C92.8281 43.7017 99.6546 38.46 102.722 31.0646L103.637 28.911C106.603 21.7391 103.19 13.5311 96.0179 10.5851ZM19.5652 36.8549C14.8923 35.7172 10.9102 32.4258 9.10199 27.9764L8.18773 25.8228C7.39537 23.8927 7.49695 21.6172 8.7566 19.7887C9.89435 17.9602 11.9464 16.9443 14.1 16.9443H19.5652V36.8549ZM96.4852 25.9447L95.5709 28.0983C93.7424 32.5274 89.7603 35.9407 85.1077 36.9768V16.9443H90.5729C94.1081 16.9443 96.9525 19.7887 96.9525 23.3239C96.9321 24.2381 96.8306 25.1524 96.4852 25.9447Z" fill="#FFB63A"/>
</svg>
