<svg width="24" height="30" viewBox="0 0 24 30" fill="none" xmlns="http://www.w3.org/2000/svg">
<path d="M12.0232 0C13.8068 0 15.5174 0.708558 16.7784 1.96998C18.0395 3.23101 18.748 4.94161 18.748 6.72523C18.748 8.50851 18.0395 10.2191 16.7784 11.4805C15.5174 12.7415 13.8068 13.4501 12.0232 13.4501C10.2395 13.4501 8.52894 12.7416 7.26791 11.4805C6.00687 10.2191 5.29828 8.50851 5.29828 6.72523C5.29828 4.94161 6.00684 3.23101 7.26791 1.96998C8.52894 0.708593 10.2395 0 12.0232 0ZM12.0232 15.621C4.52136 15.621 0.523438 19.7261 0.523438 22.8107V28.9035C0.523438 29.5093 1.01439 30 1.62031 30H22.4272C23.0331 30 23.5241 29.509 23.5241 28.9031V22.8103C23.5241 19.7258 19.5257 15.621 12.0244 15.621L12.0232 15.621Z" fill="white" fill-opacity="0.89"/>
</svg>
